<svg width="128" height="23" viewBox="0 0 128 23" fill="none" xmlns="http://www.w3.org/2000/svg">
<path fill-rule="evenodd" clip-rule="evenodd" d="M64.7596 19.7844C63.9156 19.7844 63.1419 19.6086 62.4386 19.257C62.0417 19.0541 61.6969 18.813 61.4042 18.5337C61.2192 18.3573 60.8444 18.477 60.8444 18.7298V19.1071C60.8444 19.2785 60.7023 19.4175 60.527 19.4175H59.0048C58.8296 19.4175 58.6875 19.2785 58.6875 19.1071V3.30797C58.6875 3.13654 58.8296 2.99756 59.0048 2.99756H60.5199C60.6951 2.99756 60.8372 3.13654 60.8372 3.30797V8.86867C60.8372 9.12144 61.213 9.24191 61.3985 9.06596C61.6936 8.78617 62.0412 8.54468 62.4386 8.34148C63.1419 7.98986 63.9156 7.81405 64.7596 7.81405C66.2757 7.81405 67.5573 8.39498 68.6045 9.55686C69.6829 10.734 70.2221 12.1482 70.2221 13.7992C70.2221 15.4656 69.6829 16.8797 68.6045 18.0416C67.5573 19.2035 66.2757 19.7844 64.7596 19.7844ZM64.4079 17.8582C65.4395 17.8582 66.3069 17.476 67.0103 16.7116C67.7136 15.9625 68.0653 14.9917 68.0653 13.7992C68.0653 12.6221 67.7136 11.6513 67.0103 10.8869C66.3069 10.1225 65.4395 9.74031 64.4079 9.74031C63.3607 9.74031 62.4855 10.1225 61.7821 10.8869C61.0944 11.6513 60.7506 12.6221 60.7506 13.7992C60.7506 14.9917 61.0944 15.9701 61.7821 16.7345C62.4855 17.4836 63.3607 17.8582 64.4079 17.8582ZM51.2759 19.7844C49.5879 19.7844 48.1969 19.2188 47.1028 18.0875C46.0088 16.9562 45.4617 15.5268 45.4617 13.7992C45.4617 12.087 45.9931 10.6652 47.0559 9.53392C48.1188 8.38733 49.4785 7.81404 51.1353 7.81404C52.8389 7.81404 54.1909 8.35676 55.1912 9.4422C56.2691 10.5777 56.7845 12.2856 56.717 13.8389C56.7083 14.0381 56.5364 14.1891 56.3326 14.1891H48.053C47.8407 14.1891 47.6687 14.3608 47.6907 14.5673C47.7894 15.4947 48.1561 16.2553 48.7908 16.8492C49.5098 17.5218 50.3694 17.8582 51.3697 17.8582C52.6459 17.8582 53.6664 17.2791 54.4313 16.1208C54.5335 15.966 54.737 15.9031 54.9064 15.9839L56.1951 16.5988C56.3767 16.6855 56.4496 16.9029 56.3443 17.0717C55.8462 17.8707 55.1882 18.5074 54.3706 18.9818C53.4641 19.5169 52.4325 19.7844 51.2759 19.7844ZM47.9544 12.0034C47.8781 12.2271 48.0583 12.4463 48.2994 12.4463H54.0099C54.2297 12.4463 54.4053 12.2622 54.3607 12.0517C54.2327 11.4473 53.9234 10.9367 53.4328 10.52C52.8545 10.0002 52.073 9.74031 51.0884 9.74031C50.2756 9.74031 49.5723 9.98491 48.9784 10.4741C48.5076 10.8724 48.1662 11.3822 47.9544 12.0034ZM44.8005 8.61198C44.8707 8.39902 44.7083 8.18095 44.4796 8.18095H42.991C42.8415 8.18095 42.7098 8.27727 42.6675 8.41756L40.472 15.7075C40.3839 15.9998 39.9628 16.0059 39.8659 15.7162L37.4226 8.40825C37.3773 8.27266 37.2479 8.18095 37.1021 8.18095H35.3632C35.2177 8.18095 35.0886 8.27229 35.043 8.40748L32.5776 15.7211C32.4801 16.0102 32.0597 16.0036 31.9718 15.7116L29.775 8.41756C29.7327 8.27727 29.601 8.18095 29.4515 8.18095H27.916C27.6873 8.18095 27.5249 8.39902 27.5951 8.61198L31.0819 19.1889C31.1268 19.3252 31.2565 19.4175 31.4028 19.4175H33.0919C33.2383 19.4175 33.368 19.3251 33.4129 19.1887L35.8735 11.7096C35.9678 11.4229 36.3824 11.4224 36.4775 11.7089L38.9589 19.1895C39.004 19.3255 39.1335 19.4175 39.2797 19.4175H40.9928C41.1392 19.4175 41.2688 19.3252 41.3137 19.1889L44.8005 8.61198ZM111.627 18.7525C112.252 19.3182 113.033 19.601 113.971 19.601C114.592 19.601 115.148 19.533 115.64 19.397C115.808 19.3506 115.893 19.173 115.835 19.0121L115.375 17.739C115.313 17.5683 115.116 17.4859 114.939 17.5405C114.891 17.5553 114.842 17.5695 114.792 17.583C114.635 17.6136 114.471 17.6288 114.299 17.6288C113.924 17.6288 113.588 17.4989 113.291 17.239C112.994 16.9638 112.846 16.4517 112.846 15.7026V10.4176C112.846 10.2462 112.988 10.1072 113.163 10.1072H115.342C115.517 10.1072 115.659 9.96825 115.659 9.79681V8.49137C115.659 8.31993 115.517 8.18095 115.342 8.18095H113.163C112.988 8.18095 112.846 8.04198 112.846 7.87054V3.30797C112.846 3.13654 112.704 2.99756 112.528 2.99756H111.006C110.831 2.99756 110.689 3.13654 110.689 3.30797V7.87054C110.689 8.04198 110.547 8.18095 110.371 8.18095H108.99C108.815 8.18095 108.673 8.31993 108.673 8.49137V9.79681C108.673 9.96825 108.815 10.1072 108.99 10.1072H110.371C110.547 10.1072 110.689 10.2462 110.689 10.4176V16.3905C110.704 17.3995 111.017 18.1869 111.627 18.7525ZM80.8231 18.4085C81.8703 17.4913 82.3939 16.3447 82.3939 14.9688C82.3939 14.1279 82.1516 13.3712 81.6671 12.6985C81.4442 12.3787 81.1239 11.9721 80.1843 11.4569C79.9858 11.3481 79.9807 11.0581 80.1684 10.9322C81.2926 10.1786 81.8547 9.03762 81.8547 7.69939C81.8547 6.4305 81.378 5.39857 80.4246 4.6036C79.4555 3.77805 78.2599 3.36528 76.8376 3.36528C75.6966 3.36528 74.7041 3.66339 73.8601 4.25962C73.1081 4.7909 72.5484 5.46784 72.181 6.29044C72.1049 6.46089 72.1923 6.65559 72.3674 6.72813L73.7002 7.28024C73.8889 7.35843 74.1046 7.26445 74.1892 7.08188C74.7143 5.94948 75.5971 5.38328 76.8376 5.38328C77.6816 5.38328 78.3615 5.59731 78.8772 6.02537C79.393 6.45343 79.6509 7.01143 79.6509 7.69939C79.6509 8.44849 79.3774 9.06001 78.8303 9.53393C78.2833 9.99256 77.58 10.2219 76.7203 10.2219H75.8583C75.6611 10.2219 75.5012 10.3782 75.5012 10.5711V11.8448C75.5012 12.0377 75.6611 12.194 75.8583 12.194H76.8845C77.791 12.194 78.5646 12.4616 79.2055 12.9966C79.8619 13.5317 80.1901 14.1891 80.1901 14.9688C80.1901 15.7484 79.8775 16.4135 79.2523 16.9638C78.6115 17.4989 77.8535 17.7664 76.9782 17.7664C76.1811 17.7664 75.4934 17.5371 74.9151 17.0785C74.4362 16.6751 74.0705 16.1277 73.818 15.4363C73.746 15.2389 73.5217 15.1315 73.3239 15.2121L72.0199 15.7436C71.8527 15.8117 71.7631 15.992 71.8217 16.1596C72.1862 17.2017 72.8188 18.0584 73.7195 18.7296C74.6885 19.4328 75.7748 19.7844 76.9782 19.7844C78.5099 19.7844 79.7916 19.3258 80.8231 18.4085ZM86.2212 15.9778C86.2212 15.3662 86.5104 14.8541 87.0886 14.4413C87.6826 14.0286 88.4172 13.8222 89.2924 13.8222C90.4153 13.8222 91.3069 14.0484 91.9671 14.5009C92.0566 14.5622 92.107 14.6642 92.1013 14.7709C92.0582 15.587 91.7002 16.3027 91.0273 16.918C90.324 17.5753 89.5191 17.904 88.6125 17.904C87.9717 17.904 87.4091 17.7206 86.9245 17.3537C86.4556 16.9868 86.2212 16.5281 86.2212 15.9778ZM92.7856 9.07529C91.8635 8.23446 90.6053 7.81405 89.0111 7.81405C87.0891 7.81405 85.6078 8.46069 84.5672 9.75399C84.4552 9.89324 84.4974 10.0945 84.6507 10.1889L86.011 11.0267C86.1548 11.1152 86.3433 11.0763 86.4495 10.9465C87.1324 10.1118 88.0253 9.69445 89.1283 9.69445C89.9254 9.69445 90.6209 9.95434 91.2149 10.4741C91.8126 10.9818 92.0241 11.5921 92.0848 12.2813C92.1057 12.5182 91.8412 12.6714 91.6169 12.5798C90.8746 12.2767 89.9825 12.1252 88.9408 12.1252C87.4403 12.1252 86.2368 12.4692 85.3303 13.1572C84.4394 13.8451 83.994 14.77 83.994 15.9319C83.994 17.0326 84.416 17.9499 85.26 18.6837C86.1196 19.4175 87.1824 19.7844 88.4484 19.7844C89.9332 19.7844 91.1211 19.1423 92.012 17.8582V19.1071C92.012 19.2785 92.1541 19.4175 92.3293 19.4175H93.8515C94.0268 19.4175 94.1689 19.2785 94.1689 19.1071V12.4921C94.1689 11.0398 93.7078 9.90084 92.7856 9.07529ZM106.683 19.0877C106.683 19.2699 106.532 19.4175 106.346 19.4175H104.863C104.677 19.4175 104.526 19.2699 104.526 19.0877V18.7193C104.526 18.4817 104.158 18.3677 103.985 18.5344C103.713 18.7962 103.386 19.0294 103.002 19.2341C102.33 19.601 101.627 19.7844 100.892 19.7844C99.4853 19.7844 98.399 19.3946 97.6331 18.6149C96.8829 17.8199 96.5078 16.6963 96.5078 15.2439V8.51077C96.5078 8.32862 96.6588 8.18095 96.845 8.18095H98.3275C98.5137 8.18095 98.6647 8.32862 98.6647 8.51077V15.1064C98.7116 16.9409 99.6572 17.8582 101.501 17.8582C102.361 17.8582 103.08 17.5218 103.658 16.8492C104.237 16.1612 104.526 15.3433 104.526 14.3955V8.51077C104.526 8.32862 104.677 8.18095 104.863 8.18095H106.346C106.532 8.18095 106.683 8.32862 106.683 8.51077V19.0877ZM117.825 3.30797C117.825 3.13654 117.967 2.99756 118.143 2.99756H119.665C119.84 2.99756 119.982 3.13654 119.982 3.30797V8.87917C119.982 9.11681 120.348 9.2298 120.52 9.06199C120.788 8.80107 121.109 8.56854 121.483 8.36441C122.17 7.9975 122.881 7.81405 123.616 7.81405C125.023 7.81405 126.101 8.21153 126.851 9.0065C127.617 9.78618 128 10.9022 128 12.3545V19.1071C128 19.2785 127.858 19.4175 127.683 19.4175H126.161C125.985 19.4175 125.843 19.2785 125.843 19.1071V12.7673C125.843 10.7493 124.929 9.74031 123.1 9.74031C122.225 9.74031 121.483 10.0996 120.873 10.8181C120.279 11.5213 119.982 12.3469 119.982 13.2947V19.1071C119.982 19.2785 119.84 19.4175 119.665 19.4175H118.143C117.967 19.4175 117.825 19.2785 117.825 19.1071V3.30797Z" fill="white"/>
<path d="M19.1175 17.6364C19.2431 18.1023 19.9079 18.1023 20.0335 17.6364L23.6477 4.22177C23.8141 3.60411 23.3461 2.99756 22.7031 2.99756H20.4748C20.0322 2.99756 19.6448 3.2932 19.5302 3.71836L17.4921 11.2831C17.4639 11.388 17.4639 11.4985 17.4921 11.6034L19.1175 17.6364Z" fill="white"/>
<path d="M6.48656 11.2733C6.51483 11.3782 6.51483 11.4887 6.48656 11.5936L4.86114 17.6265C4.7356 18.0925 4.07077 18.0925 3.94523 17.6265L0.333663 4.22177C0.16725 3.60411 0.635231 2.99756 1.2782 2.99756H3.50656C3.94914 2.99756 4.33654 3.2932 4.45109 3.71836L6.48656 11.2733Z" fill="white"/>
<path d="M9.53323 20.5851C9.4226 20.9969 9.04847 21.2833 8.62105 21.2833H6.34068C5.71974 21.2833 5.26779 20.6957 5.4285 20.0974L9.8167 3.76121C9.93769 3.31077 10.3469 2.99756 10.8144 2.99756H13.4667C13.9341 2.99756 14.3434 3.31077 14.4644 3.76121L18.8526 20.0974C19.0133 20.6957 18.5613 21.2833 17.9404 21.2833H15.66C15.2326 21.2833 14.8584 20.9969 14.7478 20.5851L12.5824 12.5236C12.4612 12.0727 11.8198 12.0727 11.6987 12.5236L9.53323 20.5851Z" fill="white"/>
<path d="M11.3397 18.8852C11.1765 18.8852 11.0577 18.7387 11.1 18.5896L11.9008 15.7618C11.9665 15.5297 12.3145 15.5297 12.3803 15.7618L13.1811 18.5896C13.2234 18.7387 13.1046 18.8852 12.9414 18.8852H11.3397Z" fill="white"/>
</svg>
