<svg width="205" height="30" viewBox="0 0 205 30" fill="none" xmlns="http://www.w3.org/2000/svg">
<g clip-path="url(#clip0_3405_289)">
<path fill-rule="evenodd" clip-rule="evenodd" d="M10.1351 5.60385C11.4592 4.30673 13.5776 4.30673 14.9017 5.60385L18.0365 8.6747C19.3999 10.0102 19.3999 12.2051 18.0365 13.5406L12.5733 18.8924L16.4914 22.7305C17.2379 23.4618 17.2503 24.6598 16.519 25.4063C15.7878 26.1527 14.5898 26.1651 13.8433 25.4338L4.35129 16.1355C2.98797 14.8 2.98796 12.6051 4.35129 11.2696L10.1351 5.60385ZM9.86944 16.2437L15.1125 11.1077L12.5184 8.56656L7.27538 13.7026L9.86944 16.2437Z" fill="white"/>
<path fill-rule="evenodd" clip-rule="evenodd" d="M18.082 8.19873C19.4061 6.90161 21.5245 6.90161 22.8486 8.19873L25.9835 11.2696C27.3468 12.6051 27.3468 14.8 25.9835 16.1355L16.4915 25.4338C15.745 26.1651 14.547 26.1527 13.8157 25.4062C13.0845 24.6597 13.0968 23.4618 13.8433 22.7305L17.7614 18.8924L14.9472 16.1355C13.5838 14.8 13.5838 12.6051 14.9472 11.2696L18.082 8.19873ZM20.4653 16.2437L23.0594 13.7026L20.4653 11.1614L17.8713 13.7026L20.4653 16.2437Z" fill="white"/>
<path opacity="0.95" d="M17.8698 13.709L15.1142 11.0916L12.4711 13.6874L15.1613 16.3638L17.8698 13.709Z" fill="white"/>
</g>
<path d="M36.0524 23H38.7324V17.82H42.1524C44.9924 17.82 46.8924 16.1 46.8924 13.52C46.8924 10.98 44.9924 9.28 42.1524 9.28H36.0524V23ZM38.7324 15.42V11.68H42.1524C43.3924 11.68 44.2124 12.42 44.2124 13.52C44.2124 14.66 43.3924 15.42 42.1524 15.42H38.7324ZM52.0605 23.28C54.5005 23.28 56.5805 21.8 57.2405 19.6H54.8005C54.3405 20.6 53.2405 21.28 52.0605 21.28C50.5005 21.28 49.3005 20.22 49.0805 18.66H57.2805L57.4805 18.46V18C57.4805 14.84 55.3005 12.72 52.0605 12.72C48.8205 12.72 46.6405 14.84 46.6405 18C46.6405 21.16 48.8205 23.28 52.0605 23.28ZM49.2405 16.66C49.6805 15.5 50.8005 14.72 52.0605 14.72C53.3205 14.72 54.4405 15.5 54.8805 16.66H49.2405ZM58.8155 23H61.2155V17.08C61.2155 15.74 62.2755 14.84 63.8755 14.84H64.6955V13C64.4155 12.88 63.9955 12.8 63.6355 12.8C62.7155 12.8 61.7355 13.36 61.2155 14.18V13H58.8155V23ZM71.7988 12.72C70.5788 12.72 69.2388 13.28 68.4788 14.1V13H66.0788V26.72H68.4788V21.9C69.2388 22.72 70.5788 23.28 71.7988 23.28C74.9588 23.28 77.0788 21.16 77.0788 18C77.0788 14.84 74.9588 12.72 71.7988 12.72ZM71.5588 14.84C73.4188 14.84 74.6788 16.1 74.6788 18C74.6788 19.9 73.4188 21.16 71.5588 21.16C69.7188 21.16 68.4788 19.9 68.4788 18C68.4788 16.1 69.7188 14.84 71.5588 14.84ZM83.4402 23.28C85.8802 23.28 87.9602 21.8 88.6202 19.6H86.1802C85.7202 20.6 84.6202 21.28 83.4402 21.28C81.8802 21.28 80.6802 20.22 80.4602 18.66H88.6602L88.8602 18.46V18C88.8602 14.84 86.6802 12.72 83.4402 12.72C80.2002 12.72 78.0202 14.84 78.0202 18C78.0202 21.16 80.2002 23.28 83.4402 23.28ZM80.6202 16.66C81.0602 15.5 82.1802 14.72 83.4402 14.72C84.7002 14.72 85.8202 15.5 86.2602 16.66H80.6202ZM93.9544 23.28C94.5944 23.28 95.2744 23.16 95.6544 23V21.28H93.9144C93.3944 21.28 93.0344 20.94 93.0344 20.44V15H95.5544V13H93.0344V9.28H90.6344V13H89.0344V15H90.6344V20.44C90.6344 22.14 91.9744 23.28 93.9544 23.28ZM106.709 13H104.309V18.94C104.309 20.26 103.329 21.16 101.869 21.16C100.409 21.16 99.4288 20.26 99.4288 18.94V13H97.0288V19.22C97.0288 21.66 98.8688 23.28 101.589 23.28C102.569 23.28 103.669 22.88 104.309 22.26V23H106.709V13ZM113.252 23.28C114.432 23.28 115.732 22.74 116.492 21.92V23H118.892V13H116.492V14.08C115.732 13.26 114.432 12.72 113.252 12.72C110.132 12.72 108.052 14.84 108.052 18C108.052 21.16 110.132 23.28 113.252 23.28ZM113.492 21.16C111.672 21.16 110.452 19.9 110.452 18C110.452 16.1 111.672 14.84 113.492 14.84C115.292 14.84 116.492 16.1 116.492 18C116.492 19.9 115.292 21.16 113.492 21.16ZM120.637 23H123.037V9.28H120.637V23ZM129.916 23H132.596V17.82H136.016C138.856 17.82 140.756 16.1 140.756 13.52C140.756 10.98 138.856 9.28 136.016 9.28H129.916V23ZM132.596 15.42V11.68H136.016C137.256 11.68 138.076 12.42 138.076 13.52C138.076 14.66 137.256 15.42 136.016 15.42H132.596ZM141.705 23H144.105V17.08C144.105 15.74 145.165 14.84 146.765 14.84H147.585V13C147.305 12.88 146.885 12.8 146.525 12.8C145.605 12.8 144.625 13.36 144.105 14.18V13H141.705V23ZM152.992 23.28C156.232 23.28 158.412 21.16 158.412 18C158.412 14.84 156.232 12.72 152.992 12.72C149.752 12.72 147.572 14.84 147.572 18C147.572 21.16 149.752 23.28 152.992 23.28ZM152.992 21.16C151.192 21.16 149.972 19.9 149.972 18C149.972 16.1 151.192 14.84 152.992 14.84C154.792 14.84 156.012 16.1 156.012 18C156.012 19.9 154.792 21.16 152.992 21.16ZM163.701 23.28C164.341 23.28 165.021 23.16 165.401 23V21.28H163.661C163.141 21.28 162.781 20.94 162.781 20.44V15H165.301V13H162.781V9.28H160.381V13H158.781V15H160.381V20.44C160.381 22.14 161.721 23.28 163.701 23.28ZM171.405 23.28C174.645 23.28 176.825 21.16 176.825 18C176.825 14.84 174.645 12.72 171.405 12.72C168.165 12.72 165.985 14.84 165.985 18C165.985 21.16 168.165 23.28 171.405 23.28ZM171.405 21.16C169.605 21.16 168.385 19.9 168.385 18C168.385 16.1 169.605 14.84 171.405 14.84C173.205 14.84 174.425 16.1 174.425 18C174.425 19.9 173.205 21.16 171.405 21.16ZM183.18 23.28C185.9 23.28 188 21.54 188.42 18.94H186.12C185.82 20.26 184.64 21.16 183.18 21.16C181.38 21.16 180.16 19.9 180.16 18C180.16 16.1 181.38 14.84 183.18 14.84C184.62 14.84 185.78 15.7 186.1 16.96H188.4C187.96 14.42 185.86 12.72 183.18 12.72C179.94 12.72 177.76 14.84 177.76 18C177.76 21.16 179.94 23.28 183.18 23.28ZM194.779 23.28C198.019 23.28 200.199 21.16 200.199 18C200.199 14.84 198.019 12.72 194.779 12.72C191.539 12.72 189.359 14.84 189.359 18C189.359 21.16 191.539 23.28 194.779 23.28ZM194.779 21.16C192.979 21.16 191.759 19.9 191.759 18C191.759 16.1 192.979 14.84 194.779 14.84C196.579 14.84 197.799 16.1 197.799 18C197.799 19.9 196.579 21.16 194.779 21.16ZM201.339 23H203.739V9.28H201.339V23Z" fill="white"/>
<defs>
<clipPath id="clip0_3405_289">
<rect width="30" height="30" fill="white" transform="translate(0.392395)"/>
</clipPath>
</defs>
</svg>
